<svg width="150" height="26" viewBox="0 0 150 26" fill="none" xmlns="http://www.w3.org/2000/svg">
<path d="M4.34279 12C4.24411 11.9 4.24411 11.8 4.14542 11.7C4.14542 11.6 4.04674 11.5 4.14542 11.3C4.14542 11.3 4.14542 11.3 4.14542 11.2C4.14542 11.2 4.14542 11.2 4.14542 11.1C4.24411 11 4.34279 11 4.44148 11C4.54016 11 4.63884 11.1 4.63884 11.3C4.73753 11.2 4.9349 11.3 4.9349 11.4C5.03358 11.5 5.03358 11.6 4.9349 11.7C4.83621 11.8 4.73753 11.9 4.63884 11.9C4.73753 12 4.54016 12 4.34279 12Z" fill="#252525"/>
<path d="M5.13217 10.1999C5.13217 10.1999 5.23085 10.4999 5.32954 10.8999C6.02033 10.7999 9.27691 10.4999 10.7572 8.29992C10.6585 8.09992 10.6585 7.89992 10.5598 7.69992C10.4611 5.89992 10.0664 4.79992 10.0664 4.69992C10.8558 2.29992 9.47427 0.499924 9.47427 0.499924L8.58612 2.79992C8.48743 2.69992 8.48743 2.69992 8.48743 2.69992C8.09269 2.39992 7.59927 2.19992 7.50059 2.19992C7.30322 2.19992 7.20454 2.09992 7.00717 2.09992C5.82296 1.79992 4.83611 2.09992 4.04664 3.09992C3.84927 3.39992 3.45453 3.89992 3.25717 4.29992C3.0598 4.79992 2.66506 5.09992 2.17164 5.09992C1.87559 5.09992 1.38217 5.19992 1.08611 5.19992C0.494011 5.19992 0.296642 5.59992 0.395326 6.09992C0.592694 7.09992 0.691379 7.49992 1.67822 7.89992C1.87559 7.99992 2.96111 8.29992 3.15848 8.39992C4.24401 8.89992 4.73743 9.29992 5.13217 10.1999Z" fill="#252525"/>
<path d="M24.1778 16.7002C24.7699 15.8002 24.7699 14.9002 24.4738 13.9002C24.2764 13.4002 24.0791 12.9002 23.8817 12.5002C24.9672 11.2002 25.0659 9.80023 24.4738 8.80023C24.4738 8.70023 24.2764 8.80023 24.2764 8.80023C24.2764 9.10023 24.3751 9.70023 24.3751 10.0002C24.2764 11.0002 23.6843 12.0002 22.6975 11.8002C21.0199 11.3002 19.2436 11.2002 17.4672 11.4002C16.283 11.5002 15.0988 11.5002 14.0133 11.4002C12.8291 11.3002 11.9409 10.8002 11.2501 9.90024C11.1514 9.80024 10.9541 9.30024 10.7567 8.70024C9.86855 9.90024 8.487 10.5002 7.40147 10.8002C6.41463 11.1002 5.62515 11.2002 5.3291 11.2002C5.3291 11.3002 5.3291 11.5002 5.42779 11.6002C5.52647 12.5002 5.52648 13.4002 5.62516 14.3002C5.82253 15.7002 6.41464 16.8002 7.59885 17.6002C7.8949 17.8002 8.28964 18.0002 8.58569 18.3002C8.98043 18.6002 9.27647 18.9002 9.67121 19.3002C10.5593 20.1002 10.8554 21.2002 10.7567 22.4002C10.7567 22.9002 10.658 23.2002 10.1646 23.4002C9.96724 23.5002 9.67122 23.6002 9.47385 23.7002C9.37516 23.7002 8.88174 24.0002 8.58569 24.6002C8.58569 24.7002 8.58568 24.9002 8.68436 24.9002H10.362C10.4607 24.9002 11.0528 24.3002 11.0528 24.2002L11.1514 24.1002C11.9409 23.0002 12.0396 20.9002 11.3488 19.7002C11.0528 19.2002 10.8554 18.6002 10.8554 18.1002C10.8554 17.4002 11.0528 16.8002 11.3488 16.3002C11.6449 15.7002 11.6449 15.6002 11.0528 15.3002C10.658 15.1002 10.4607 14.9002 10.4607 14.5002C10.4607 14.3002 10.362 14.0002 10.362 13.8002C10.658 13.6002 11.0528 13.5002 11.2501 13.3002C11.5462 12.9002 11.9409 12.8002 12.3357 12.8002C12.8291 12.7002 12.8291 12.7002 12.9278 12.2002C12.9278 12.1002 13.0264 12.0002 13.1251 11.7002C13.3225 12.1002 13.4212 12.3002 13.5199 12.5002C13.7172 12.9002 13.9146 13.3002 14.112 13.6002C14.5067 14.1002 14.7041 14.5002 14.7041 15.1002C14.7041 15.7002 15.0001 16.0002 15.4936 16.2002C16.283 16.5002 16.9738 16.8002 17.7633 17.2002C19.3422 18.1002 20.6251 19.4002 21.3159 21.1002C21.612 21.9002 21.5133 22.7002 21.1186 23.5002C20.9212 23.9002 20.7238 24.4002 20.033 24.2002C19.8357 24.1002 19.6383 24.4002 19.6383 24.6002C19.6383 24.9002 19.8357 24.9002 20.033 25.0002C20.2304 25.0002 20.4278 25.0002 20.6251 25.0002C20.9212 24.9002 21.1186 24.9002 21.4146 25.0002C22.2041 25.3002 22.9936 24.9002 23.3883 24.1002C23.6843 23.5002 23.783 22.9002 24.1778 22.3002C24.6712 21.5002 24.6712 20.9002 24.0791 20.2002C23.8817 19.9002 23.6843 19.6002 23.5857 19.3002C23.3883 18.7002 23.3883 18.2002 23.5857 17.6002C23.8817 17.3002 23.9804 17.0002 24.1778 16.7002ZM23.3883 22.2002C23.3883 22.9002 23.0922 23.5002 22.7962 24.1002C22.5988 24.4002 22.4014 24.4002 21.8093 24.1002C22.1054 23.2002 22.4014 22.2002 22.6975 21.3002C23.2896 21.6002 23.487 21.7002 23.3883 22.2002Z" fill="#252525"/>
<path d="M70.8555 22.2002H73.0265V22.7002H71.3489V23.5002H72.8292V24.0002H71.3489V25.2002H70.8555V22.2002Z" fill="#252525"/>
<path d="M75.0986 23.7002C75.0986 22.9002 75.6907 22.2002 76.6776 22.2002C77.5658 22.2002 78.1579 22.9002 78.1579 23.7002C78.1579 24.5002 77.5658 25.2002 76.5789 25.2002C75.6907 25.2002 75.0986 24.5002 75.0986 23.7002ZM77.6644 23.7002C77.6644 23.1002 77.2697 22.6002 76.6776 22.6002C76.0855 22.6002 75.6907 23.1002 75.6907 23.6002C75.6907 24.2002 76.0855 24.7002 76.6776 24.7002C77.2697 24.7002 77.6644 24.2002 77.6644 23.7002Z" fill="#252525"/>
<path d="M80.4277 22.2002H81.7106C82.1054 22.2002 82.4014 22.3002 82.5988 22.5002C82.7961 22.7002 82.7961 22.9002 82.7961 23.1002C82.7961 23.6002 82.5001 23.9002 82.1054 24.0002L82.8948 25.1002H82.3027L81.6119 24.1002H80.9212V25.1002H80.4277V22.2002ZM81.7106 23.6002C82.1054 23.6002 82.3027 23.4002 82.3027 23.1002C82.3027 22.8002 82.1054 22.6002 81.7106 22.6002H80.9212V23.6002H81.7106Z" fill="#252525"/>
<path d="M88.125 22.2002H90.2961V22.7002H88.6184V23.5002H90.0987V24.0002H88.6184V25.2002H88.125V22.2002Z" fill="#252525"/>
<path d="M93.5524 22.2002H94.0459L95.3287 25.2002H94.7366L94.4406 24.5002H93.059L92.763 25.2002H92.2695L93.5524 22.2002ZM94.2432 24.0002L93.7498 22.8002L93.2564 24.0002H94.2432Z" fill="#252525"/>
<path d="M97.5 22.2002H98.0921L98.9803 23.6002L99.8684 22.2002H100.461V25.2002H99.9671V23.0002L99.0789 24.4002L98.1908 23.0002V25.1002H97.6974V22.2002H97.5Z" fill="#252525"/>
<path d="M102.829 22.2002H103.323V25.2002H102.829V22.2002Z" fill="#252525"/>
<path d="M105.789 22.2002H106.282V24.7002H107.861V25.2002H105.789V22.2002Z" fill="#252525"/>
<path d="M110.922 24.0002L109.737 22.2002H110.329L111.119 23.5002L111.908 22.2002H112.5L111.316 24.0002V25.2002H110.823V24.0002H110.922Z" fill="#252525"/>
<path d="M32.9611 8.69972H35.2308C35.2308 8.79972 35.3295 8.89972 35.3295 8.99972C35.3295 9.09972 35.3295 9.19972 35.2308 9.19972C35.2308 9.19972 35.1321 9.29972 35.0335 9.29972H34.6387C34.6387 9.79972 34.6387 10.6997 34.6387 11.8997H37.7966C37.7966 10.6997 37.7966 9.79972 37.7966 9.29972H37.2045C37.2045 9.19972 37.1058 9.09972 37.1058 8.99972C37.1058 8.89972 37.1058 8.89972 37.2045 8.79972C37.2045 8.79972 37.3032 8.69972 37.4019 8.69972H39.6716C39.6716 8.79972 39.7703 8.89972 39.7703 8.99972C39.7703 9.09972 39.7703 9.19972 39.6716 9.19972C39.6716 9.19972 39.5729 9.29972 39.4742 9.29972H39.0795C39.0795 9.79972 39.0795 10.5997 39.0795 11.7997C39.0795 13.7997 39.0795 15.0997 39.0795 15.5997H39.6716C39.6716 15.6997 39.7703 15.7997 39.7703 15.8997C39.7703 15.9997 39.7703 16.0997 39.6716 16.0997C39.6716 16.0997 39.5729 16.1997 39.4742 16.1997H37.2045C37.2045 16.0997 37.1058 15.9997 37.1058 15.8997C37.1058 15.7997 37.1058 15.7997 37.2045 15.6997C37.2045 15.6997 37.3032 15.5997 37.4019 15.5997H37.7966C37.7966 15.1997 37.7966 14.1997 37.7966 12.5997H34.6387C34.6387 14.1997 34.6387 15.1997 34.6387 15.5997H35.2308C35.2308 15.6997 35.3295 15.7997 35.3295 15.8997C35.3295 15.9997 35.3295 16.0997 35.2308 16.0997C35.2308 16.0997 35.1321 16.1997 35.0335 16.1997H32.7637C32.7637 16.0997 32.665 15.9997 32.665 15.8997C32.665 15.7997 32.665 15.7997 32.7637 15.6997C32.7637 15.6997 32.8624 15.5997 32.9611 15.5997H33.3558C33.3558 15.0997 33.3558 13.7997 33.3558 11.6997C33.3558 10.5997 33.3558 9.79972 33.3558 9.29972H32.7637C32.7637 9.19972 32.665 9.09972 32.665 8.99972C32.665 8.89972 32.665 8.89972 32.7637 8.79972C32.7637 8.69972 32.8624 8.69972 32.9611 8.69972Z" fill="#252525"/>
<path d="M41.6447 8.69972H46.1842C46.3815 8.69972 46.4802 8.69972 46.5789 8.79972C46.6776 8.89972 46.6776 8.99971 46.6776 9.09971C46.6776 9.29971 46.5789 9.49972 46.4802 9.79972C45.7894 9.49972 44.9013 9.39972 43.7171 9.39972H43.2236C43.2236 9.79972 43.2236 10.5997 43.2236 11.7997H45.9868C45.9868 11.8997 46.0855 12.0997 46.0855 12.1997C46.0855 12.2997 46.0855 12.3997 45.9868 12.3997C45.9868 12.3997 45.8881 12.4997 45.7894 12.4997H43.2236C43.2236 14.0997 43.2236 14.9997 43.2236 15.3997H44.0131C45.1973 15.3997 46.0855 15.2997 46.6776 14.9997C46.7763 15.1997 46.8749 15.3997 46.8749 15.5997C46.8749 15.7997 46.7763 15.8997 46.6776 15.9997C46.5789 16.0997 46.3815 16.0997 46.0855 16.0997H41.4473C41.4473 15.9997 41.3486 15.8997 41.3486 15.7997C41.3486 15.6997 41.3486 15.6997 41.4473 15.5997C41.4473 15.5997 41.546 15.4997 41.6447 15.4997H42.0394C42.0394 14.9997 42.0394 13.6997 42.0394 11.5997C42.0394 10.4997 42.0394 9.69972 42.0394 9.19972H41.4473C41.4473 9.09972 41.3486 8.99972 41.3486 8.89972C41.3486 8.79972 41.3486 8.79972 41.4473 8.69972C41.4473 8.69972 41.546 8.69972 41.6447 8.69972Z" fill="#252525"/>
<path d="M51.4148 8.59953C51.8096 8.59953 52.0069 8.59953 52.1056 8.59953C52.2043 8.59953 52.5004 9.59953 53.1911 11.5995C53.8819 13.5995 54.2767 14.8995 54.5727 15.3995H55.0661C55.0661 15.4995 55.1648 15.5995 55.1648 15.6995C55.1648 15.7995 55.1648 15.8995 55.0661 15.8995C55.0661 15.8995 54.9675 15.9995 54.8688 15.9995H52.6977C52.6977 15.8995 52.599 15.7995 52.599 15.6995C52.599 15.5995 52.599 15.5995 52.6977 15.4995C52.6977 15.4995 52.7964 15.3995 52.8951 15.3995H53.1911C53.0925 15.0995 52.9938 14.4995 52.6977 13.4995H50.3293C50.0333 14.3995 49.9346 14.9995 49.8359 15.3995H50.3293C50.3293 15.4995 50.428 15.5995 50.428 15.6995C50.428 15.7995 50.428 15.8995 50.3293 15.8995C50.3293 15.8995 50.2306 15.9995 50.1319 15.9995H48.1583C48.1583 15.8995 48.0596 15.7995 48.0596 15.6995C48.0596 15.5995 48.0596 15.5995 48.1583 15.4995C48.1583 15.4995 48.2569 15.3995 48.3556 15.3995H48.6517C48.849 14.6995 49.2438 13.5995 49.8359 11.7995C50.428 10.0995 50.724 9.09953 50.8227 8.79953C50.8227 8.79953 51.1188 8.59953 51.4148 8.59953ZM50.3293 12.9995H52.303C51.6122 10.8995 51.3161 9.89953 51.2175 9.89953C51.3161 9.89953 50.9214 10.8995 50.3293 12.9995Z" fill="#252525"/>
<path d="M56.6447 8.69969H58.8157C60.296 8.69969 61.2828 8.99969 61.7763 9.49969C62.3684 9.99969 62.5657 10.8997 62.5657 12.0997C62.5657 13.3997 62.2697 14.3997 61.7763 15.0997C61.1842 15.7997 60.296 16.0997 59.0131 16.0997H56.4473C56.4473 15.9997 56.3486 15.8997 56.3486 15.7997C56.3486 15.6997 56.3486 15.6997 56.4473 15.5997C56.4473 15.5997 56.546 15.4997 56.6447 15.4997H57.0394C57.0394 14.9997 57.0394 13.6997 57.0394 11.5997C57.0394 10.4997 57.0394 9.69969 57.0394 9.19969H56.4473C56.4473 9.09969 56.3486 8.99969 56.3486 8.89969C56.3486 8.79969 56.3486 8.79969 56.4473 8.69969C56.4473 8.69969 56.546 8.69969 56.6447 8.69969ZM58.9144 9.49969C58.6184 9.49969 58.421 9.49968 58.2236 9.59968C58.2236 10.0997 58.2236 11.4997 58.2236 13.5997C58.2236 14.4997 58.2236 14.9997 58.3223 15.0997C58.421 15.1997 58.7171 15.2997 59.3092 15.2997C59.9999 15.2997 60.3947 15.0997 60.7894 14.6997C61.0855 14.2997 61.2828 13.5997 61.2828 12.4997C61.2828 11.3997 61.0855 10.5997 60.6907 10.1997C60.296 9.69969 59.7039 9.49969 58.9144 9.49969Z" fill="#252525"/>
<path d="M67.2036 8.59953C67.9931 8.59953 68.4865 8.59953 68.7826 8.69953C69.0786 8.79953 69.276 8.99953 69.276 9.19953C69.276 9.39953 69.1773 9.69953 68.98 9.79953C68.1905 9.49953 67.4997 9.29953 66.9076 9.29953C66.4142 9.29953 66.1181 9.39953 65.9208 9.59953C65.7234 9.79953 65.6247 9.99953 65.6247 10.3995C65.6247 10.6995 65.7234 10.9995 65.9208 11.1995C66.1181 11.3995 66.6115 11.5995 67.2036 11.7995C67.8944 11.9995 68.4865 12.2995 68.8813 12.5995C69.276 12.8995 69.4734 13.3995 69.4734 13.9995C69.4734 14.6995 69.276 15.2995 68.7826 15.5995C68.2892 15.9995 67.4997 16.1995 66.5129 16.1995C65.8221 16.1995 65.23 16.0995 64.9339 15.9995C64.5392 15.8995 64.3418 15.6995 64.3418 15.3995C64.3418 15.1995 64.4405 14.8995 64.6379 14.6995C65.3286 15.0995 66.1181 15.2995 66.8089 15.2995C67.3023 15.2995 67.6971 15.1995 67.8944 14.9995C68.0918 14.7995 68.1905 14.5995 68.1905 14.1995C68.1905 13.7995 67.9931 13.3995 67.6971 13.1995C67.401 12.9995 66.9076 12.7995 66.2168 12.4995C65.526 12.2995 65.0326 11.9995 64.7365 11.6995C64.4405 11.3995 64.3418 10.9995 64.3418 10.4995C64.3418 9.89953 64.5392 9.39953 65.0326 8.99953C65.6247 8.79953 66.3155 8.59953 67.2036 8.59953Z" fill="#252525"/>
<path d="M79.441 9.29971H78.8489C78.8489 9.19971 78.7502 9.09971 78.7502 8.99971C78.7502 8.89971 78.7502 8.89971 78.8489 8.79971C78.8489 8.79971 78.9476 8.69971 79.0463 8.69971H81.1186C81.1186 8.79971 81.2173 8.89971 81.2173 8.99971C81.2173 9.09971 81.2173 9.19971 81.1186 9.19971C81.1186 9.19971 81.02 9.29971 80.9213 9.29971H80.5265C80.5265 9.79971 80.5265 10.9997 80.5265 12.8997C80.5265 14.1997 80.3292 15.0997 79.7371 15.4997C79.2436 15.9997 78.4542 16.1997 77.4673 16.1997C76.5792 16.1997 75.987 15.9997 75.691 15.6997C75.2963 15.3997 75.1976 14.6997 75.1976 13.7997C75.1976 11.2997 75.1976 9.79971 75.1976 9.29971H74.7042C74.7042 9.19971 74.6055 9.09971 74.6055 8.99971C74.6055 8.89971 74.6055 8.89971 74.7042 8.79971C74.7042 8.79971 74.8028 8.69971 74.9015 8.69971H76.9739C76.9739 8.79971 77.0726 8.89971 77.0726 8.99971C77.0726 9.09971 77.0726 9.19971 76.9739 9.19971C76.9739 9.19971 76.8752 9.29971 76.7765 9.29971H76.3818C76.3818 9.89971 76.3818 11.0997 76.3818 12.9997C76.3818 13.9997 76.4805 14.6997 76.7765 14.9997C77.0726 15.2997 77.3686 15.4997 77.9607 15.4997C78.5528 15.4997 78.9476 15.2997 79.1449 14.9997C79.3423 14.6997 79.441 14.0997 79.441 13.1997C79.5397 11.1997 79.5397 9.89971 79.441 9.29971Z" fill="#252525"/>
<path d="M83.3881 9.29969H82.796C82.796 9.19969 82.6973 9.09969 82.6973 8.99969C82.6973 8.89969 82.6973 8.89969 82.796 8.79969C82.796 8.79969 82.8947 8.69969 82.9934 8.69969H85.1644C86.546 8.69969 87.4342 8.89969 87.8289 9.19969C88.3223 9.49969 88.5197 10.0997 88.5197 10.7997C88.5197 11.5997 88.2236 12.1997 87.7302 12.5997C87.1381 12.9997 86.25 13.1997 84.9671 13.1997H84.671C84.671 14.2997 84.671 15.0997 84.671 15.3997H85.4605C85.4605 15.4997 85.5592 15.5997 85.5592 15.6997C85.5592 15.7997 85.5592 15.8997 85.4605 15.8997C85.4605 15.8997 85.3618 15.9997 85.2631 15.9997H82.6973C82.6973 15.8997 82.5986 15.7997 82.5986 15.6997C82.5986 15.5997 82.5986 15.5997 82.6973 15.4997C82.6973 15.4997 82.796 15.3997 82.8947 15.3997H83.3881C83.3881 14.8997 83.3881 13.5997 83.3881 11.4997C83.4868 10.5997 83.3881 9.79969 83.3881 9.29969ZM85.0657 12.5997C85.8552 12.5997 86.4473 12.4997 86.7434 12.2997C87.0394 12.0997 87.2368 11.6997 87.2368 11.0997C87.2368 10.5997 87.0394 10.1997 86.7434 9.89969C86.4473 9.59969 85.9539 9.49969 85.2631 9.49969C85.0657 9.49969 84.8684 9.49968 84.671 9.59968C84.671 9.89968 84.671 10.5997 84.671 11.7997V12.6997H85.0657V12.5997Z" fill="#252525"/>
<path d="M93.6515 8.69971H98.191C98.3884 8.69971 98.4871 8.69971 98.5857 8.79971C98.6844 8.89971 98.6844 8.9997 98.6844 9.0997C98.6844 9.2997 98.5857 9.49971 98.4871 9.79971C97.7963 9.49971 96.9081 9.39971 95.7239 9.39971H95.2305C95.2305 9.79971 95.2305 10.6997 95.2305 11.9997H97.8949C97.8949 12.0997 97.9936 12.2997 97.9936 12.3997C97.9936 12.4997 97.9936 12.5997 97.8949 12.5997C97.8949 12.5997 97.7963 12.6997 97.6976 12.6997H95.2305C95.2305 14.1997 95.2305 15.0997 95.2305 15.4997H96.1186C96.1186 15.5997 96.2173 15.6997 96.2173 15.7997C96.2173 15.8997 96.2173 15.9997 96.1186 15.9997C96.1186 15.9997 96.0199 16.0997 95.9213 16.0997H93.4542C93.4542 15.9997 93.3555 15.8997 93.3555 15.7997C93.3555 15.6997 93.3555 15.6997 93.4542 15.5997C93.4542 15.5997 93.5528 15.4997 93.6515 15.4997H94.0463C94.0463 14.9997 94.0463 13.6997 94.0463 11.5997C94.0463 10.4997 94.0463 9.69971 94.0463 9.19971H93.4542C93.4542 9.09971 93.3555 8.99971 93.3555 8.89971C93.3555 8.79971 93.3555 8.79971 93.4542 8.69971C93.4542 8.69971 93.5528 8.69971 93.6515 8.69971Z" fill="#252525"/>
<path d="M99.9668 12.7995C99.9668 11.3995 100.263 10.2995 100.855 9.59953C101.447 8.89953 102.237 8.59953 103.322 8.59953C104.309 8.59953 105 8.79953 105.493 9.29953C105.987 9.79953 106.283 10.6995 106.283 11.9995C106.283 13.3995 105.987 14.4995 105.394 15.1995C104.802 15.8995 104.013 16.1995 102.927 16.1995C101.94 16.1995 101.25 15.9995 100.756 15.4995C100.164 14.9995 99.9668 14.0995 99.9668 12.7995ZM101.25 12.2995C101.25 13.4995 101.447 14.2995 101.743 14.7995C102.039 15.1995 102.533 15.4995 103.223 15.4995C103.815 15.4995 104.21 15.2995 104.506 14.7995C104.802 14.2995 105 13.5995 105 12.5995C105 11.3995 104.802 10.4995 104.506 10.0995C104.21 9.69953 103.717 9.39953 103.026 9.39953C102.434 9.39953 102.039 9.59953 101.743 10.0995C101.348 10.4995 101.25 11.2995 101.25 12.2995Z" fill="#252525"/>
<path d="M110.033 15.4995H110.823C110.823 15.5995 110.921 15.6995 110.921 15.7995C110.921 15.8995 110.921 15.9995 110.823 15.9995C110.823 15.9995 110.724 16.0995 110.625 16.0995H108.158C108.158 15.9995 108.06 15.8995 108.06 15.7995C108.06 15.6995 108.06 15.6995 108.158 15.5995C108.158 15.5995 108.257 15.4995 108.356 15.4995H108.849C108.849 14.9995 108.849 13.6995 108.849 11.5995C108.849 10.4995 108.849 9.69953 108.849 9.19953H108.257C108.257 9.09953 108.158 8.99953 108.158 8.89953C108.158 8.79953 108.158 8.79953 108.257 8.69953C108.257 8.69953 108.356 8.59953 108.454 8.59953H110.724C111.81 8.59953 112.599 8.79953 113.092 9.09953C113.586 9.39953 113.783 9.89953 113.783 10.4995C113.783 11.4995 113.191 12.1995 112.007 12.4995C112.303 12.5995 112.599 12.7995 112.796 13.0995C112.994 13.3995 113.191 13.7995 113.487 14.2995C113.685 14.7995 113.882 15.0995 114.079 15.2995C114.178 15.3995 114.375 15.4995 114.671 15.4995C114.77 15.7995 114.77 15.8995 114.671 15.9995C114.573 16.0995 114.375 16.0995 113.981 16.0995C113.586 16.0995 113.29 15.9995 113.092 15.8995C112.895 15.7995 112.698 15.3995 112.5 14.6995C112.303 13.9995 112.106 13.4995 111.908 13.2995C111.711 12.9995 111.316 12.8995 110.921 12.8995C110.724 12.8995 110.527 12.8995 110.231 12.9995C110.033 14.2995 110.033 15.0995 110.033 15.4995ZM110.033 12.2995H110.527C111.119 12.2995 111.612 12.1995 111.908 11.9995C112.204 11.7995 112.402 11.4995 112.402 10.9995C112.402 10.4995 112.303 10.0995 112.007 9.89953C111.711 9.69953 111.316 9.49953 110.724 9.49953C110.527 9.49953 110.231 9.49953 110.132 9.59953C110.132 9.89953 110.132 10.5995 110.132 11.7995V12.2995H110.033Z" fill="#252525"/>
<path d="M121.381 15.4998C121.381 14.9998 121.381 13.6998 121.381 11.5998C121.381 10.4998 121.381 9.69979 121.381 9.29979C120.098 9.39979 119.408 9.3998 119.21 9.3998C119.013 9.3998 118.914 9.39979 118.914 9.29979C118.815 9.19979 118.815 9.1998 118.815 8.9998C118.815 8.7998 118.914 8.59979 119.013 8.29979C119.605 8.49979 120.493 8.4998 121.677 8.4998H125.033C125.23 8.4998 125.329 8.49979 125.329 8.59979C125.427 8.69979 125.427 8.6998 125.427 8.8998C125.427 9.1998 125.329 9.39979 125.23 9.59979C124.638 9.29979 123.848 9.1998 122.861 9.1998H122.664C122.664 9.5998 122.664 10.3998 122.664 11.4998C122.664 13.4998 122.664 14.7998 122.664 15.2998H123.454C123.454 15.3998 123.552 15.4998 123.552 15.5998C123.552 15.6998 123.552 15.7998 123.454 15.7998C123.454 15.7998 123.355 15.8998 123.256 15.8998H120.592C120.592 15.7998 120.493 15.6998 120.493 15.5998C120.493 15.4998 120.493 15.4998 120.592 15.3998C120.592 15.3998 120.69 15.2998 120.789 15.2998H121.381V15.4998Z" fill="#252525"/>
<path d="M128.783 8.59953C129.178 8.59953 129.375 8.59953 129.474 8.59953C129.572 8.59953 129.869 9.59953 130.559 11.5995C131.25 13.5995 131.645 14.8995 131.941 15.3995H132.434C132.434 15.4995 132.533 15.5995 132.533 15.6995C132.533 15.7995 132.533 15.8995 132.434 15.8995C132.434 15.8995 132.336 15.9995 132.237 15.9995H129.967C129.967 15.8995 129.869 15.7995 129.869 15.6995C129.869 15.5995 129.869 15.5995 129.967 15.4995C129.967 15.4995 130.066 15.3995 130.165 15.3995H130.461C130.362 15.0995 130.263 14.4995 129.967 13.4995H127.599C127.303 14.3995 127.204 14.9995 127.105 15.3995H127.599C127.599 15.4995 127.698 15.5995 127.698 15.6995C127.698 15.7995 127.698 15.8995 127.599 15.8995C127.599 15.8995 127.5 15.9995 127.401 15.9995H125.428C125.428 15.8995 125.329 15.7995 125.329 15.6995C125.329 15.5995 125.329 15.5995 125.428 15.4995C125.428 15.4995 125.526 15.3995 125.625 15.3995H125.921C126.119 14.6995 126.513 13.5995 127.105 11.7995C127.698 10.0995 127.994 9.09953 128.092 8.79953C128.191 8.79953 128.388 8.59953 128.783 8.59953ZM127.698 12.9995H129.671C128.98 10.8995 128.684 9.89953 128.586 9.89953C128.586 9.89953 128.29 10.8995 127.698 12.9995Z" fill="#252525"/>
<path d="M133.914 8.69972H136.283C136.283 8.79972 136.381 8.89972 136.381 8.99972C136.381 9.09972 136.381 9.19972 136.283 9.19972C136.283 9.19972 136.184 9.29972 136.085 9.29972H135.592C135.592 9.79972 135.592 10.5997 135.592 11.7997C135.592 13.7997 135.592 15.0997 135.592 15.5997H136.283C136.283 15.6997 136.381 15.7997 136.381 15.8997C136.381 15.9997 136.381 16.0997 136.283 16.0997C136.283 16.0997 136.184 16.1997 136.085 16.1997H133.717C133.717 16.0997 133.618 15.9997 133.618 15.8997C133.618 15.7997 133.618 15.7997 133.717 15.6997C133.717 15.6997 133.816 15.5997 133.914 15.5997H134.408C134.408 15.0997 134.408 13.7997 134.408 11.6997C134.408 10.5997 134.408 9.79972 134.408 9.29972H133.717C133.717 9.19972 133.618 9.09972 133.618 8.99972C133.618 8.89972 133.618 8.89972 133.717 8.79972C133.816 8.69972 133.816 8.69972 133.914 8.69972Z" fill="#252525"/>
<path d="M140.033 15.3995H140.527C141.612 15.3995 142.5 15.2995 143.092 14.9995C143.191 15.1995 143.29 15.3995 143.29 15.5995C143.29 15.7995 143.191 15.8995 143.092 15.9995C142.994 16.0995 142.796 16.0995 142.5 16.0995H138.257C138.257 15.9995 138.158 15.8995 138.158 15.7995C138.158 15.6995 138.158 15.6995 138.257 15.5995C138.257 15.5995 138.356 15.4995 138.454 15.4995H138.849C138.849 14.9995 138.849 13.6995 138.849 11.5995C138.849 10.4995 138.849 9.69953 138.849 9.19953H138.257C138.257 9.09953 138.158 8.99953 138.158 8.89953C138.158 8.79953 138.158 8.79953 138.257 8.69953C138.257 8.69953 138.356 8.59953 138.454 8.59953H140.724C140.724 8.69953 140.823 8.79953 140.823 8.89953C140.823 8.99953 140.823 9.09953 140.724 9.09953C140.724 9.09953 140.625 9.19953 140.527 9.19953H140.033C140.033 9.69953 140.033 10.4995 140.033 11.6995C140.033 13.7995 140.033 14.9995 140.033 15.3995Z" fill="#252525"/>
<path d="M147.336 8.59953C148.125 8.59953 148.618 8.59953 148.914 8.69953C149.211 8.79953 149.408 8.99953 149.408 9.19953C149.408 9.39953 149.309 9.69953 149.112 9.79953C148.322 9.49953 147.632 9.29953 147.039 9.29953C146.546 9.29953 146.25 9.39953 146.053 9.59953C145.855 9.79953 145.757 9.99953 145.757 10.3995C145.757 10.6995 145.855 10.9995 146.053 11.1995C146.25 11.3995 146.743 11.5995 147.336 11.7995C148.026 11.9995 148.618 12.2995 149.013 12.5995C149.408 12.8995 149.605 13.3995 149.605 13.9995C149.605 14.6995 149.408 15.2995 148.914 15.5995C148.421 15.9995 147.632 16.1995 146.645 16.1995C145.954 16.1995 145.362 16.0995 145.066 15.9995C144.671 15.8995 144.474 15.6995 144.474 15.3995C144.474 15.1995 144.572 14.8995 144.77 14.6995C145.46 15.0995 146.25 15.2995 146.941 15.2995C147.434 15.2995 147.829 15.1995 148.026 14.9995C148.224 14.7995 148.322 14.5995 148.322 14.1995C148.322 13.7995 148.125 13.3995 147.829 13.1995C147.533 12.9995 147.039 12.7995 146.349 12.4995C145.658 12.2995 145.164 11.9995 144.868 11.6995C144.572 11.3995 144.474 10.9995 144.474 10.4995C144.474 9.89953 144.671 9.39953 145.164 8.99953C145.757 8.79953 146.447 8.59953 147.336 8.59953Z" fill="#252525"/>
<path d="M149.606 0.499939H32.665V0.899939H149.606V0.499939Z" fill="#252525"/>
<path d="M63.5532 23.3999H32.665V23.7999H63.5532V23.3999Z" fill="#252525"/>
<path d="M149.704 23.3999H118.815V23.7999H149.704V23.3999Z" fill="#252525"/>
</svg>
